#tb 0: 1/25
0,          0,          0,        1,   152064, 0x81ab8dad
0,          1,          1,        1,   152064, 0x820fd98a
0,          2,          2,        1,   152064, 0x1ccc712b
0,          3,          3,        1,   152064, 0x0d278740
0,          4,          4,        1,   152064, 0x13eaa8e2
